<svg width="14" height="12" viewBox="0 0 14 12" fill="none" xmlns="http://www.w3.org/2000/svg">
<path d="M7 1.33333C4.49507 1.33333 2.62401 2.96027 1.51158 4.2929C0.676804 5.29291 0.676804 6.70709 1.51158 7.70711C2.62401 9.03973 4.49507 10.6667 7 10.6667C9.50493 10.6667 11.376 9.03973 12.4884 7.70711C13.3232 6.70709 13.3232 5.29291 12.4884 4.2929C11.376 2.96027 9.50493 1.33333 7 1.33333Z" stroke="#666666" stroke-linecap="round" stroke-linejoin="round"/>
<path d="M7 8C8.10457 8 9 7.10457 9 6C9 4.89543 8.10457 4 7 4C5.89543 4 5 4.89543 5 6C5 7.10457 5.89543 8 7 8Z" stroke="#666666" stroke-linecap="round" stroke-linejoin="round"/>
</svg>
